<svg xmlns="http://www.w3.org/2000/svg" viewBox="0 0 88.546 19.9"><defs><style>.a{fill:#fff;}</style></defs><g transform="translate(-158.749 -445.822)"><g transform="translate(158.749 445.822)"><path class="a" d="M3.367,7.305v7.814H0V0L9.434,7.988V.175H12.8V15.294Z"/><path class="a" d="M102.1,1.1h3.367V16.06H102.1Z" transform="translate(-85.885 -0.925)"/><path class="a" d="M142.4,7.639a7.657,7.657,0,0,1,13.912-4.4l-2.541,2.08a4.359,4.359,0,0,0-3.7-2.08,4.3,4.3,0,0,0-4.256,4.4,4.284,4.284,0,0,0,7.957,2.319l2.541,2.08a7.657,7.657,0,0,1-13.912-4.4Z" transform="translate(-119.785)"/><path class="a" d="M239.5,7.639a7.639,7.639,0,1,1,7.639,7.639A7.652,7.652,0,0,1,239.5,7.639Zm11.9,0a4.259,4.259,0,1,0-8.512,0,4.259,4.259,0,1,0,8.512,0Z" transform="translate(-201.464 0)"/><g transform="translate(55.038 0.123)"><path class="a" d="M355.443,10.649c.476-.349.953-.683,1.445-1.032s1-.667,1.493-.953a.4.4,0,0,0,.111-.064.912.912,0,0,0,.111-.064.809.809,0,0,1,.175-.064q.1-.024.143.1a.171.171,0,0,1,0,.175.432.432,0,0,1-.127.159,1.212,1.212,0,0,1-.175.127c-.064.032-.127.079-.191.111-.524.318-1.048.651-1.556,1s-1.016.7-1.509,1.08a.5.5,0,0,0-.159.286c-.127.524-.254,1.032-.4,1.541s-.3,1.016-.461,1.509c-.175.54-.381,1.064-.588,1.588a13.515,13.515,0,0,1-.746,1.525c-.175.318-.365.619-.556.921a6.78,6.78,0,0,1-.651.858,4.291,4.291,0,0,1-.937.858,2.961,2.961,0,0,1-.619.349,3.432,3.432,0,0,1-.683.222,1.334,1.334,0,0,1-.858-.1,1.32,1.32,0,0,1-.588-.461,1.964,1.964,0,0,1-.286-.7,2.408,2.408,0,0,1,.079-1.112,6.706,6.706,0,0,1,.4-.985,7.94,7.94,0,0,1,.54-.937,9.187,9.187,0,0,1,.842-1.064c.3-.334.635-.651.969-.969.524-.492,1.064-.953,1.6-1.4s1.1-.889,1.683-1.318l.619-.476a.942.942,0,0,0,.175-.159.994.994,0,0,0,.079-.222c.27-1.1.508-2.144.715-3.16s.349-2.033.461-3.049c.032-.254.048-.508.064-.746a5.879,5.879,0,0,0,0-.746,6.414,6.414,0,0,0-.1-.746,2.75,2.75,0,0,0-.127-.429.811.811,0,0,0-.619-.476,1.291,1.291,0,0,0-.349-.016l-.349.048a1.374,1.374,0,0,0-.365.1c-.111.048-.238.1-.349.143a6.878,6.878,0,0,0-1.445.842,15.7,15.7,0,0,0-2.4,2.176,14.429,14.429,0,0,0-1.89,2.636c-.191.349-.365.715-.524,1.08a8.813,8.813,0,0,0-.4,1.143,5.046,5.046,0,0,0-.206,1.239,3.532,3.532,0,0,0,.127,1.08,1.8,1.8,0,0,0,1.048,1.239,3.131,3.131,0,0,0,1.382.318h.524c.1,0,.143.032.159.1.016.1-.032.143-.127.175a.675.675,0,0,1-.175.032c-.064,0-.111.016-.175.016a3.353,3.353,0,0,1-1.763-.3,2.146,2.146,0,0,1-1.239-1.429,3.483,3.483,0,0,1-.143-.794,6.893,6.893,0,0,1,.016-.81,6.692,6.692,0,0,1,.238-1.175,10.751,10.751,0,0,1,.413-1.128c.159-.349.333-.7.508-1.032.19-.334.4-.651.619-.969a17.323,17.323,0,0,1,1.556-1.969,15.684,15.684,0,0,1,1.842-1.7c.286-.222.572-.429.889-.635a7.01,7.01,0,0,1,.969-.508,2.789,2.789,0,0,1,.508-.191,3.133,3.133,0,0,1,.556-.111,1.816,1.816,0,0,1,.715.048.82.82,0,0,1,.461.286,2.924,2.924,0,0,1,.318.492,2.068,2.068,0,0,1,.206.651,2.981,2.981,0,0,0,.063.4c.016.127.032.254.048.4q.024.524,0,1.048t-.1,1.048c-.127.921-.27,1.779-.445,2.589C355.776,9,355.618,9.808,355.443,10.649Zm-.889,1.159a1.374,1.374,0,0,1-.159.111.88.88,0,0,0-.127.1c-.524.4-1.048.81-1.556,1.223s-1.016.842-1.509,1.271a9.179,9.179,0,0,0-.81.762c-.254.27-.508.54-.762.826a7.873,7.873,0,0,0-1.08,1.668,6.872,6.872,0,0,0-.3.762,2.292,2.292,0,0,0-.079,1.08,1.018,1.018,0,0,0,.413.651,1,1,0,0,0,.746.143,2.75,2.75,0,0,0,.588-.175,3.984,3.984,0,0,0,1.334-1,6.4,6.4,0,0,0,.7-.921c.238-.365.461-.746.667-1.128s.381-.778.572-1.191c.27-.651.508-1.286.715-1.938s.4-1.318.572-1.985c.016-.016.016-.048.032-.079A1.289,1.289,0,0,0,354.554,11.809Z" transform="translate(-346.559 -1.132)"/><path class="a" d="M426.924,46.1c.127-.159.254-.206.365-.143a.316.316,0,0,1,.175.318,1.534,1.534,0,0,1,0,.27c-.016.1-.032.175-.048.27l-.032.159a1.749,1.749,0,0,0,.508-.175,4.675,4.675,0,0,0,.413-.27c.111-.1.222-.191.3-.27a.851.851,0,0,1,.191-.175.17.17,0,0,1,.175-.016c.064.032.079.079.032.159a1.476,1.476,0,0,1-.191.254,2.043,2.043,0,0,1-.381.334q-.238.167-.524.334a2.131,2.131,0,0,1-.635.206l-.143.238-.143.238a1.251,1.251,0,0,1-.27.318.6.6,0,0,1-.238.143.347.347,0,0,1-.476-.159.717.717,0,0,1-.111-.4,2.846,2.846,0,0,1,.318-1.413.9.9,0,0,1,.159-.206c.159-.111.286-.079.4.1,0,.016.016.032.032.079Zm-.048,1.207-.032-.032a.446.446,0,0,1-.238-.445v-.143c0-.016,0-.016-.032-.032a2.036,2.036,0,0,0-.175.492c-.032.159-.079.334-.1.492a.27.27,0,0,0-.016.111.254.254,0,0,0,.048.127.931.931,0,0,0,.318-.286.852.852,0,0,0,.222-.286Zm.3-1.1c-.032,0-.048,0-.048.016a1.345,1.345,0,0,0-.238.476.1.1,0,0,0,0,.1v.111q0,.071.1.1.048.024.1-.048a1.666,1.666,0,0,0,.143-.651.244.244,0,0,0-.048-.1Z" transform="translate(-413.292 -38.757)"/><path class="a" d="M441,47.705a.105.105,0,0,0,.111.032c.032-.016.079-.048.111-.064a.333.333,0,0,1,.1-.064,3.318,3.318,0,0,1,.27-.222c.1-.079.175-.143.254-.222l.746-.794c.064-.079.111-.1.175-.079a.133.133,0,0,1,.1.191l-.048.445a4.252,4.252,0,0,1-.079.476c-.032.159-.048.318-.079.476a.989.989,0,0,0-.016.3v.3a1.819,1.819,0,0,0,.032.222c.016.079.064.1.127.064a1.267,1.267,0,0,0,.254-.127,2.724,2.724,0,0,0,.318-.286,4.045,4.045,0,0,0,.413-.476c.127-.175.254-.334.381-.508.191-.254.381-.508.572-.778.175-.27.365-.524.556-.778.064-.079.111-.143.143-.175a.143.143,0,0,1,.206-.048.127.127,0,0,1,.032.175.649.649,0,0,0-.079.143c-.032.048-.048.1-.079.143L444.5,47.419c-.143.191-.286.365-.429.556q-.238.286-.476.524a2.543,2.543,0,0,1-.413.349,1.244,1.244,0,0,1-.286.175.407.407,0,0,1-.333,0,.467.467,0,0,1-.222-.238,1.369,1.369,0,0,1-.111-.54c.016-.191.016-.365.032-.556a3.159,3.159,0,0,1,.079-.54v-.1c-.032-.016-.064,0-.079,0l-.048.048c-.1.1-.175.175-.254.27s-.175.175-.254.27a1.425,1.425,0,0,1-.159.143c-.048.048-.111.1-.159.143a.658.658,0,0,1-.206.111.5.5,0,0,1-.365.032.43.43,0,0,1-.254-.27,1.244,1.244,0,0,1-.079-.556q.024-.167.048-.381c.032-.143.048-.286.1-.445a3.641,3.641,0,0,1,.111-.445c.032-.143.079-.254.111-.365a1.008,1.008,0,0,1,.1-.159.213.213,0,0,1,.222-.079.18.18,0,0,1,.111.191v.079c0,.032-.016.048-.016.079l-.175.842c-.016.1-.048.254-.079.461C441,47.276,440.987,47.5,441,47.705Z" transform="translate(-425.559 -38.283)"/><path class="a" d="M471.431,31.75c-.175.111-.381.238-.588.381a4.777,4.777,0,0,1-.588.334.738.738,0,0,1-.365.1c-.286-.016-.413-.159-.4-.476a7.01,7.01,0,0,1,.222-1.1,9.01,9.01,0,0,1,.381-1.032,1.632,1.632,0,0,0,.063-.159c.032-.048.048-.111.079-.159a.569.569,0,0,1,.111-.159.263.263,0,0,1,.19-.079.2.2,0,0,1,.175.1.645.645,0,0,1,.079.334,1.513,1.513,0,0,1-.048.4,6.737,6.737,0,0,1-.619,1.683l-.048.1a.058.058,0,0,0,.079.032.122.122,0,0,0,.079-.032,2.669,2.669,0,0,0,.572-.334q.31-.214.572-.381c.079-.032.143-.064.191-.079a.146.146,0,0,1,.159.032.128.128,0,0,1,.048.143,1.815,1.815,0,0,1-.032.222c-.063.238-.127.476-.191.7-.064.238-.127.476-.191.7-.079.318-.159.619-.238.937a8.916,8.916,0,0,0-.191.937,3.183,3.183,0,0,1-.064.381,1.539,1.539,0,0,0-.016.381v.111a.138.138,0,0,0,.064.111.058.058,0,0,1,.048-.016c.016,0,.032-.016.048-.032a1.689,1.689,0,0,0,.191-.159.676.676,0,0,0,.175-.191,12.363,12.363,0,0,0,1.112-1.588c.334-.556.651-1.112.969-1.652a.229.229,0,0,1,.1-.111c.048-.048.1-.064.143-.032a.131.131,0,0,1,.079.127.539.539,0,0,1-.1.191c-.191.349-.381.667-.556.969s-.349.6-.524.873a9.565,9.565,0,0,1-.572.826c-.191.27-.413.524-.635.794a1.587,1.587,0,0,1-.175.159.478.478,0,0,1-.175.1.388.388,0,0,1-.191,0,.377.377,0,0,1-.191-.143.586.586,0,0,1-.111-.365v-.238a1.227,1.227,0,0,1,.032-.238c.079-.556.175-1.112.3-1.652a14.263,14.263,0,0,1,.476-1.6c.016-.064.032-.1.032-.111C471.446,31.766,471.446,31.75,471.431,31.75Zm-1.588.175c.191-.413.318-.746.413-1.016a5.866,5.866,0,0,0,.191-.619,1.687,1.687,0,0,0,.048-.318v-.127l-.032.064a4.96,4.96,0,0,0-.191.476c-.064.175-.127.349-.191.54s-.111.365-.159.54A3.057,3.057,0,0,1,469.842,31.925Z" transform="translate(-449.968 -24.854)"/><path class="a" d="M493.839,38a1.689,1.689,0,0,0-.238.238,1.433,1.433,0,0,0-.175.254c-.1.143-.175.286-.27.445a4.011,4.011,0,0,0-.254.445l-.874,1.588-.1.127a.239.239,0,0,1-.175.064c-.032-.016-.079-.032-.111-.048a.1.1,0,0,1-.048-.1v-.127a.394.394,0,0,1,.016-.127c.032-.143.063-.27.1-.4s.063-.254.1-.4l.746-2.557c.032-.1.064-.206.111-.334.048-.111.127-.159.222-.127a1.093,1.093,0,0,1,.127.048.165.165,0,0,1,.064.127,1.432,1.432,0,0,1-.032.175c-.032.111-.064.238-.1.349s-.064.238-.1.349l-.4,1.366c-.016.064-.032.111-.016.143l.127-.222a3.323,3.323,0,0,0,.238-.476c.079-.143.159-.3.254-.476a2.522,2.522,0,0,1,.445-.572l.1-.1c.032-.032.064-.048.1-.079a.277.277,0,0,1,.445.127q.048.143.1.334a3.619,3.619,0,0,1,.032.4,3.484,3.484,0,0,0,.016.4,2.338,2.338,0,0,1,.016.334,2.371,2.371,0,0,0,.032.334.965.965,0,0,0,.079.286.1.1,0,0,0,.127.079,1.091,1.091,0,0,0,.127-.048.4.4,0,0,0,.111-.064,5.086,5.086,0,0,0,.429-.349c.143-.143.286-.27.429-.413.159-.143.3-.286.429-.413a.877.877,0,0,1,.127-.1.12.12,0,0,1,.159.016c.032.032.032.079.016.143a.3.3,0,0,1-.064.143l-.286.286-.222.222-.191.191-.191.191a2.752,2.752,0,0,1-.238.206l-.238.191a.329.329,0,0,1-.159.1.9.9,0,0,0-.191.064.4.4,0,0,1-.524-.191,1.119,1.119,0,0,1-.143-.476,2.172,2.172,0,0,1-.032-.3c0-.1-.016-.206-.016-.3a3.444,3.444,0,0,1-.016-.4,3.457,3.457,0,0,0-.016-.4v-.1c0-.032-.016-.064-.016-.111Z" transform="translate(-468.565 -31.196)"/><path class="a" d="M515.513,47.955a2.227,2.227,0,0,1,.19-.175c.079-.064.159-.143.238-.206a2.793,2.793,0,0,0,.222-.191c.079-.064.127-.111.19-.159a.578.578,0,0,1,.143-.111.185.185,0,0,1,.159-.032.192.192,0,0,1,.111.111c.016.048.032.079.016.1a.339.339,0,0,0,.016.1,1.756,1.756,0,0,1,.079.27c.032.1.064.175.1.27a.64.64,0,0,0,.079.143.867.867,0,0,0,.111.143.27.27,0,0,0,.159.1.22.22,0,0,0,.175-.032.9.9,0,0,0,.206-.159,3.159,3.159,0,0,0,.3-.349l.286-.381c.111-.159.191-.286.27-.413s.159-.254.254-.413a1.016,1.016,0,0,1,.1-.159.151.151,0,0,1,.206-.032.136.136,0,0,1,.032.175l-.048.1c-.159.27-.318.508-.476.731a8.528,8.528,0,0,1-.508.7c-.064.064-.111.127-.175.191l-.191.191a.667.667,0,0,1-.4.191.58.58,0,0,1-.477-.191,1.089,1.089,0,0,1-.3-.524.9.9,0,0,0-.064-.191,1.484,1.484,0,0,0-.063-.206,1.125,1.125,0,0,1-.143.1l-.572.524a.907.907,0,0,0-.127.111.91.91,0,0,1-.127.111c-.111.079-.19.1-.27.032a.258.258,0,0,1-.111-.222.272.272,0,0,1,.016-.127c.016-.048.032-.1.048-.159.016-.048.032-.111.048-.159a5.365,5.365,0,0,1,.572-1.175l.143-.191a.634.634,0,0,1,.191-.159.574.574,0,0,1,.524-.079.9.9,0,0,1,.206.127.176.176,0,0,1,.064.222.159.159,0,0,1-.159.1,1.633,1.633,0,0,1-.27-.016.221.221,0,0,0-.222.079l-.1.1c-.032.032-.048.064-.079.1a2.358,2.358,0,0,0-.222.4c-.063.159-.143.286-.206.413a1.28,1.28,0,0,0-.079.159A.781.781,0,0,0,515.513,47.955Z" transform="translate(-488.333 -38.898)"/><path class="a" d="M531.2,14.865c.016-.254.032-.492.063-.715s.063-.445.111-.667l.238-1.1.238-1.1c.191-.953.413-1.874.635-2.8s.476-1.842.731-2.763c.111-.445.254-.889.4-1.334.143-.429.286-.873.445-1.318a16.166,16.166,0,0,1,.794-1.985.942.942,0,0,1,.064-.127c.032-.032.048-.079.079-.111a.205.205,0,0,1,.191-.079.21.21,0,0,1,.143.159.806.806,0,0,1,.048.27,1.937,1.937,0,0,1-.016.429,3.227,3.227,0,0,1-.063.413,7.232,7.232,0,0,1-.27,1.191q-.167.572-.381,1.143l-.429,1.048c-.159.349-.318.683-.476,1.032L533.169,7.7a1.826,1.826,0,0,0-.175.461c-.079.349-.159.683-.254,1.032s-.175.7-.254,1.032c-.079.318-.143.619-.206.921s-.127.6-.206.921-.159.619-.222.921-.127.6-.175.921c-.016.159-.032.318-.048.461-.016.159-.032.3-.048.461a.885.885,0,0,0,.079.508v.048a.161.161,0,0,1-.079.191.145.145,0,0,1-.19,0,.359.359,0,0,1-.175-.27.492.492,0,0,1-.016-.159v-.286Zm3.843-13.579c-.032.064-.063.1-.079.127q-.381.977-.667,1.953c-.143.476-.27.937-.413,1.413s-.27.937-.4,1.429l-.048.222a.558.558,0,0,0,.127-.206,5.609,5.609,0,0,1,.254-.54,5.61,5.61,0,0,0,.254-.54c.159-.4.318-.794.461-1.207q.214-.6.381-1.239a5.238,5.238,0,0,0,.143-.683,3.7,3.7,0,0,0,.032-.731Z" transform="translate(-501.876 -0.775)"/></g><g transform="translate(55.038 0.123)"><path class="a" d="M355.443,10.649c.476-.349.953-.683,1.445-1.032s1-.667,1.493-.953a.4.4,0,0,0,.111-.064.912.912,0,0,0,.111-.064.809.809,0,0,1,.175-.064q.1-.024.143.1a.171.171,0,0,1,0,.175.432.432,0,0,1-.127.159,1.212,1.212,0,0,1-.175.127c-.064.032-.127.079-.191.111-.524.318-1.048.651-1.556,1s-1.016.7-1.509,1.08a.5.5,0,0,0-.159.286c-.127.524-.254,1.032-.4,1.541s-.3,1.016-.461,1.509c-.175.54-.381,1.064-.588,1.588a13.515,13.515,0,0,1-.746,1.525c-.175.318-.365.619-.556.921a6.78,6.78,0,0,1-.651.858,4.291,4.291,0,0,1-.937.858,2.961,2.961,0,0,1-.619.349,3.432,3.432,0,0,1-.683.222,1.334,1.334,0,0,1-.858-.1,1.32,1.32,0,0,1-.588-.461,1.964,1.964,0,0,1-.286-.7,2.408,2.408,0,0,1,.079-1.112,6.706,6.706,0,0,1,.4-.985,7.94,7.94,0,0,1,.54-.937,9.187,9.187,0,0,1,.842-1.064c.3-.334.635-.651.969-.969.524-.492,1.064-.953,1.6-1.4s1.1-.889,1.683-1.318l.619-.476a.942.942,0,0,0,.175-.159.994.994,0,0,0,.079-.222c.27-1.1.508-2.144.715-3.16s.349-2.033.461-3.049c.032-.254.048-.508.064-.746a5.879,5.879,0,0,0,0-.746,6.414,6.414,0,0,0-.1-.746,2.75,2.75,0,0,0-.127-.429.811.811,0,0,0-.619-.476,1.291,1.291,0,0,0-.349-.016l-.349.048a1.374,1.374,0,0,0-.365.1c-.111.048-.238.1-.349.143a6.878,6.878,0,0,0-1.445.842,15.7,15.7,0,0,0-2.4,2.176,14.429,14.429,0,0,0-1.89,2.636c-.191.349-.365.715-.524,1.08a8.813,8.813,0,0,0-.4,1.143,5.046,5.046,0,0,0-.206,1.239,3.532,3.532,0,0,0,.127,1.08,1.8,1.8,0,0,0,1.048,1.239,3.131,3.131,0,0,0,1.382.318h.524c.1,0,.143.032.159.1.016.1-.032.143-.127.175a.675.675,0,0,1-.175.032c-.064,0-.111.016-.175.016a3.353,3.353,0,0,1-1.763-.3,2.146,2.146,0,0,1-1.239-1.429,3.483,3.483,0,0,1-.143-.794,6.893,6.893,0,0,1,.016-.81,6.692,6.692,0,0,1,.238-1.175,10.751,10.751,0,0,1,.413-1.128c.159-.349.333-.7.508-1.032.19-.334.4-.651.619-.969a17.323,17.323,0,0,1,1.556-1.969,15.684,15.684,0,0,1,1.842-1.7c.286-.222.572-.429.889-.635a7.01,7.01,0,0,1,.969-.508,2.789,2.789,0,0,1,.508-.191,3.133,3.133,0,0,1,.556-.111,1.816,1.816,0,0,1,.715.048.82.82,0,0,1,.461.286,2.924,2.924,0,0,1,.318.492,2.068,2.068,0,0,1,.206.651,2.981,2.981,0,0,0,.063.4c.016.127.032.254.048.4q.024.524,0,1.048t-.1,1.048c-.127.921-.27,1.779-.445,2.589C355.776,9,355.618,9.808,355.443,10.649Zm-.889,1.159a1.374,1.374,0,0,1-.159.111.88.88,0,0,0-.127.1c-.524.4-1.048.81-1.556,1.223s-1.016.842-1.509,1.271a9.179,9.179,0,0,0-.81.762c-.254.27-.508.54-.762.826a7.873,7.873,0,0,0-1.08,1.668,6.872,6.872,0,0,0-.3.762,2.292,2.292,0,0,0-.079,1.08,1.018,1.018,0,0,0,.413.651,1,1,0,0,0,.746.143,2.75,2.75,0,0,0,.588-.175,3.984,3.984,0,0,0,1.334-1,6.4,6.4,0,0,0,.7-.921c.238-.365.461-.746.667-1.128s.381-.778.572-1.191c.27-.651.508-1.286.715-1.938s.4-1.318.572-1.985c.016-.016.016-.048.032-.079A1.289,1.289,0,0,0,354.554,11.809Z" transform="translate(-346.559 -1.132)"/><path class="a" d="M426.924,46.1c.127-.159.254-.206.365-.143a.316.316,0,0,1,.175.318,1.534,1.534,0,0,1,0,.27c-.016.1-.032.175-.048.27l-.032.159a1.749,1.749,0,0,0,.508-.175,4.675,4.675,0,0,0,.413-.27c.111-.1.222-.191.3-.27a.851.851,0,0,1,.191-.175.17.17,0,0,1,.175-.016c.064.032.079.079.032.159a1.476,1.476,0,0,1-.191.254,2.043,2.043,0,0,1-.381.334q-.238.167-.524.334a2.131,2.131,0,0,1-.635.206l-.143.238-.143.238a1.251,1.251,0,0,1-.27.318.6.6,0,0,1-.238.143.347.347,0,0,1-.476-.159.717.717,0,0,1-.111-.4,2.846,2.846,0,0,1,.318-1.413.9.9,0,0,1,.159-.206c.159-.111.286-.079.4.1,0,.016.016.032.032.079Zm-.048,1.207-.032-.032a.446.446,0,0,1-.238-.445v-.143c0-.016,0-.016-.032-.032a2.036,2.036,0,0,0-.175.492c-.032.159-.079.334-.1.492a.27.27,0,0,0-.016.111.254.254,0,0,0,.048.127.931.931,0,0,0,.318-.286.852.852,0,0,0,.222-.286Zm.3-1.1c-.032,0-.048,0-.048.016a1.345,1.345,0,0,0-.238.476.1.1,0,0,0,0,.1v.111q0,.071.1.1.048.024.1-.048a1.666,1.666,0,0,0,.143-.651.244.244,0,0,0-.048-.1Z" transform="translate(-413.292 -38.757)"/><path class="a" d="M441,47.705a.105.105,0,0,0,.111.032c.032-.016.079-.048.111-.064a.333.333,0,0,1,.1-.064,3.318,3.318,0,0,1,.27-.222c.1-.079.175-.143.254-.222l.746-.794c.064-.079.111-.1.175-.079a.133.133,0,0,1,.1.191l-.048.445a4.252,4.252,0,0,1-.079.476c-.032.159-.048.318-.079.476a.989.989,0,0,0-.016.3v.3a1.819,1.819,0,0,0,.032.222c.016.079.064.1.127.064a1.267,1.267,0,0,0,.254-.127,2.724,2.724,0,0,0,.318-.286,4.045,4.045,0,0,0,.413-.476c.127-.175.254-.334.381-.508.191-.254.381-.508.572-.778.175-.27.365-.524.556-.778.064-.079.111-.143.143-.175a.143.143,0,0,1,.206-.048.127.127,0,0,1,.032.175.649.649,0,0,0-.079.143c-.032.048-.048.1-.079.143L444.5,47.419c-.143.191-.286.365-.429.556q-.238.286-.476.524a2.543,2.543,0,0,1-.413.349,1.244,1.244,0,0,1-.286.175.407.407,0,0,1-.333,0,.467.467,0,0,1-.222-.238,1.369,1.369,0,0,1-.111-.54c.016-.191.016-.365.032-.556a3.159,3.159,0,0,1,.079-.54v-.1c-.032-.016-.064,0-.079,0l-.048.048c-.1.1-.175.175-.254.27s-.175.175-.254.27a1.425,1.425,0,0,1-.159.143c-.048.048-.111.1-.159.143a.658.658,0,0,1-.206.111.5.5,0,0,1-.365.032.43.43,0,0,1-.254-.27,1.244,1.244,0,0,1-.079-.556q.024-.167.048-.381c.032-.143.048-.286.1-.445a3.641,3.641,0,0,1,.111-.445c.032-.143.079-.254.111-.365a1.008,1.008,0,0,1,.1-.159.213.213,0,0,1,.222-.079.18.18,0,0,1,.111.191v.079c0,.032-.016.048-.016.079l-.175.842c-.016.1-.048.254-.079.461C441,47.276,440.987,47.5,441,47.705Z" transform="translate(-425.559 -38.283)"/><path class="a" d="M471.431,31.75c-.175.111-.381.238-.588.381a4.777,4.777,0,0,1-.588.334.738.738,0,0,1-.365.1c-.286-.016-.413-.159-.4-.476a7.01,7.01,0,0,1,.222-1.1,9.01,9.01,0,0,1,.381-1.032,1.632,1.632,0,0,0,.063-.159c.032-.048.048-.111.079-.159a.569.569,0,0,1,.111-.159.263.263,0,0,1,.19-.079.2.2,0,0,1,.175.1.645.645,0,0,1,.079.334,1.513,1.513,0,0,1-.048.4,6.737,6.737,0,0,1-.619,1.683l-.048.1a.058.058,0,0,0,.079.032.122.122,0,0,0,.079-.032,2.669,2.669,0,0,0,.572-.334q.31-.214.572-.381c.079-.032.143-.064.191-.079a.146.146,0,0,1,.159.032.128.128,0,0,1,.048.143,1.815,1.815,0,0,1-.032.222c-.063.238-.127.476-.191.7-.064.238-.127.476-.191.7-.079.318-.159.619-.238.937a8.916,8.916,0,0,0-.191.937,3.183,3.183,0,0,1-.064.381,1.539,1.539,0,0,0-.016.381v.111a.138.138,0,0,0,.064.111.058.058,0,0,1,.048-.016c.016,0,.032-.016.048-.032a1.689,1.689,0,0,0,.191-.159.676.676,0,0,0,.175-.191,12.363,12.363,0,0,0,1.112-1.588c.334-.556.651-1.112.969-1.652a.229.229,0,0,1,.1-.111c.048-.048.1-.064.143-.032a.131.131,0,0,1,.079.127.539.539,0,0,1-.1.191c-.191.349-.381.667-.556.969s-.349.6-.524.873a9.565,9.565,0,0,1-.572.826c-.191.27-.413.524-.635.794a1.587,1.587,0,0,1-.175.159.478.478,0,0,1-.175.1.388.388,0,0,1-.191,0,.377.377,0,0,1-.191-.143.586.586,0,0,1-.111-.365v-.238a1.227,1.227,0,0,1,.032-.238c.079-.556.175-1.112.3-1.652a14.263,14.263,0,0,1,.476-1.6c.016-.064.032-.1.032-.111C471.446,31.766,471.446,31.75,471.431,31.75Zm-1.588.175c.191-.413.318-.746.413-1.016a5.866,5.866,0,0,0,.191-.619,1.687,1.687,0,0,0,.048-.318v-.127l-.032.064a4.96,4.96,0,0,0-.191.476c-.064.175-.127.349-.191.54s-.111.365-.159.54A3.057,3.057,0,0,1,469.842,31.925Z" transform="translate(-449.968 -24.854)"/><path class="a" d="M493.839,38a1.689,1.689,0,0,0-.238.238,1.433,1.433,0,0,0-.175.254c-.1.143-.175.286-.27.445a4.011,4.011,0,0,0-.254.445l-.874,1.588-.1.127a.239.239,0,0,1-.175.064c-.032-.016-.079-.032-.111-.048a.1.1,0,0,1-.048-.1v-.127a.394.394,0,0,1,.016-.127c.032-.143.063-.27.1-.4s.063-.254.1-.4l.746-2.557c.032-.1.064-.206.111-.334.048-.111.127-.159.222-.127a1.093,1.093,0,0,1,.127.048.165.165,0,0,1,.064.127,1.432,1.432,0,0,1-.032.175c-.032.111-.064.238-.1.349s-.064.238-.1.349l-.4,1.366c-.016.064-.032.111-.016.143l.127-.222a3.323,3.323,0,0,0,.238-.476c.079-.143.159-.3.254-.476a2.522,2.522,0,0,1,.445-.572l.1-.1c.032-.032.064-.048.1-.079a.277.277,0,0,1,.445.127q.048.143.1.334a3.619,3.619,0,0,1,.032.4,3.484,3.484,0,0,0,.016.4,2.338,2.338,0,0,1,.016.334,2.371,2.371,0,0,0,.032.334.965.965,0,0,0,.079.286.1.1,0,0,0,.127.079,1.091,1.091,0,0,0,.127-.048.4.4,0,0,0,.111-.064,5.086,5.086,0,0,0,.429-.349c.143-.143.286-.27.429-.413.159-.143.3-.286.429-.413a.877.877,0,0,1,.127-.1.12.12,0,0,1,.159.016c.032.032.032.079.016.143a.3.3,0,0,1-.064.143l-.286.286-.222.222-.191.191-.191.191a2.752,2.752,0,0,1-.238.206l-.238.191a.329.329,0,0,1-.159.1.9.9,0,0,0-.191.064.4.4,0,0,1-.524-.191,1.119,1.119,0,0,1-.143-.476,2.172,2.172,0,0,1-.032-.3c0-.1-.016-.206-.016-.3a3.444,3.444,0,0,1-.016-.4,3.457,3.457,0,0,0-.016-.4v-.1c0-.032-.016-.064-.016-.111Z" transform="translate(-468.565 -31.196)"/><path class="a" d="M515.513,47.955a2.227,2.227,0,0,1,.19-.175c.079-.064.159-.143.238-.206a2.793,2.793,0,0,0,.222-.191c.079-.064.127-.111.19-.159a.578.578,0,0,1,.143-.111.185.185,0,0,1,.159-.032.192.192,0,0,1,.111.111c.016.048.032.079.016.1a.339.339,0,0,0,.016.1,1.756,1.756,0,0,1,.079.27c.032.1.064.175.1.27a.64.64,0,0,0,.079.143.867.867,0,0,0,.111.143.27.27,0,0,0,.159.1.22.22,0,0,0,.175-.032.9.9,0,0,0,.206-.159,3.159,3.159,0,0,0,.3-.349l.286-.381c.111-.159.191-.286.27-.413s.159-.254.254-.413a1.016,1.016,0,0,1,.1-.159.151.151,0,0,1,.206-.032.136.136,0,0,1,.032.175l-.048.1c-.159.27-.318.508-.476.731a8.528,8.528,0,0,1-.508.7c-.064.064-.111.127-.175.191l-.191.191a.667.667,0,0,1-.4.191.58.58,0,0,1-.477-.191,1.089,1.089,0,0,1-.3-.524.9.9,0,0,0-.064-.191,1.484,1.484,0,0,0-.063-.206,1.125,1.125,0,0,1-.143.1l-.572.524a.907.907,0,0,0-.127.111.91.91,0,0,1-.127.111c-.111.079-.19.1-.27.032a.258.258,0,0,1-.111-.222.272.272,0,0,1,.016-.127c.016-.048.032-.1.048-.159.016-.048.032-.111.048-.159a5.365,5.365,0,0,1,.572-1.175l.143-.191a.634.634,0,0,1,.191-.159.574.574,0,0,1,.524-.079.9.9,0,0,1,.206.127.176.176,0,0,1,.064.222.159.159,0,0,1-.159.1,1.633,1.633,0,0,1-.27-.016.221.221,0,0,0-.222.079l-.1.1c-.032.032-.048.064-.079.1a2.358,2.358,0,0,0-.222.4c-.063.159-.143.286-.206.413a1.28,1.28,0,0,0-.079.159A.781.781,0,0,0,515.513,47.955Z" transform="translate(-488.333 -38.898)"/><path class="a" d="M531.2,14.865c.016-.254.032-.492.063-.715s.063-.445.111-.667l.238-1.1.238-1.1c.191-.953.413-1.874.635-2.8s.476-1.842.731-2.763c.111-.445.254-.889.4-1.334.143-.429.286-.873.445-1.318a16.166,16.166,0,0,1,.794-1.985.942.942,0,0,1,.064-.127c.032-.032.048-.079.079-.111a.205.205,0,0,1,.191-.079.21.21,0,0,1,.143.159.806.806,0,0,1,.048.27,1.937,1.937,0,0,1-.016.429,3.227,3.227,0,0,1-.063.413,7.232,7.232,0,0,1-.27,1.191q-.167.572-.381,1.143l-.429,1.048c-.159.349-.318.683-.476,1.032L533.169,7.7a1.826,1.826,0,0,0-.175.461c-.079.349-.159.683-.254,1.032s-.175.7-.254,1.032c-.079.318-.143.619-.206.921s-.127.6-.206.921-.159.619-.222.921-.127.6-.175.921c-.016.159-.032.318-.048.461-.016.159-.032.3-.048.461a.885.885,0,0,0,.079.508v.048a.161.161,0,0,1-.079.191.145.145,0,0,1-.19,0,.359.359,0,0,1-.175-.27.492.492,0,0,1-.016-.159v-.286Zm3.843-13.579c-.032.064-.063.1-.079.127q-.381.977-.667,1.953c-.143.476-.27.937-.413,1.413s-.27.937-.4,1.429l-.048.222a.558.558,0,0,0,.127-.206,5.609,5.609,0,0,1,.254-.54,5.61,5.61,0,0,0,.254-.54c.159-.4.318-.794.461-1.207q.214-.6.381-1.239a5.238,5.238,0,0,0,.143-.683,3.7,3.7,0,0,0,.032-.731Z" transform="translate(-501.876 -0.775)"/></g></g><g transform="translate(158.749 445.822)"><path class="a" d="M3.367,7.305v7.814H0V0L9.434,7.988V.175H12.8V15.294Z"/><path class="a" d="M102.1,1.1h3.367V16.06H102.1Z" transform="translate(-85.885 -0.925)"/><path class="a" d="M142.4,7.639a7.657,7.657,0,0,1,13.912-4.4l-2.541,2.08a4.359,4.359,0,0,0-3.7-2.08,4.3,4.3,0,0,0-4.256,4.4,4.284,4.284,0,0,0,7.957,2.319l2.541,2.08a7.657,7.657,0,0,1-13.912-4.4Z" transform="translate(-119.785)"/><path class="a" d="M239.5,7.639a7.639,7.639,0,1,1,7.639,7.639A7.652,7.652,0,0,1,239.5,7.639Zm11.9,0a4.259,4.259,0,1,0-8.512,0,4.259,4.259,0,1,0,8.512,0Z" transform="translate(-201.464 0)"/><g transform="translate(55.038 0.123)"><path class="a" d="M355.443,10.649c.476-.349.953-.683,1.445-1.032s1-.667,1.493-.953a.4.4,0,0,0,.111-.064.912.912,0,0,0,.111-.064.809.809,0,0,1,.175-.064q.1-.024.143.1a.171.171,0,0,1,0,.175.432.432,0,0,1-.127.159,1.212,1.212,0,0,1-.175.127c-.064.032-.127.079-.191.111-.524.318-1.048.651-1.556,1s-1.016.7-1.509,1.08a.5.5,0,0,0-.159.286c-.127.524-.254,1.032-.4,1.541s-.3,1.016-.461,1.509c-.175.54-.381,1.064-.588,1.588a13.515,13.515,0,0,1-.746,1.525c-.175.318-.365.619-.556.921a6.78,6.78,0,0,1-.651.858,4.291,4.291,0,0,1-.937.858,2.961,2.961,0,0,1-.619.349,3.432,3.432,0,0,1-.683.222,1.334,1.334,0,0,1-.858-.1,1.32,1.32,0,0,1-.588-.461,1.964,1.964,0,0,1-.286-.7,2.408,2.408,0,0,1,.079-1.112,6.706,6.706,0,0,1,.4-.985,7.94,7.94,0,0,1,.54-.937,9.187,9.187,0,0,1,.842-1.064c.3-.334.635-.651.969-.969.524-.492,1.064-.953,1.6-1.4s1.1-.889,1.683-1.318l.619-.476a.942.942,0,0,0,.175-.159.994.994,0,0,0,.079-.222c.27-1.1.508-2.144.715-3.16s.349-2.033.461-3.049c.032-.254.048-.508.064-.746a5.879,5.879,0,0,0,0-.746,6.414,6.414,0,0,0-.1-.746,2.75,2.75,0,0,0-.127-.429.811.811,0,0,0-.619-.476,1.291,1.291,0,0,0-.349-.016l-.349.048a1.374,1.374,0,0,0-.365.1c-.111.048-.238.1-.349.143a6.878,6.878,0,0,0-1.445.842,15.7,15.7,0,0,0-2.4,2.176,14.429,14.429,0,0,0-1.89,2.636c-.191.349-.365.715-.524,1.08a8.813,8.813,0,0,0-.4,1.143,5.046,5.046,0,0,0-.206,1.239,3.532,3.532,0,0,0,.127,1.08,1.8,1.8,0,0,0,1.048,1.239,3.131,3.131,0,0,0,1.382.318h.524c.1,0,.143.032.159.1.016.1-.032.143-.127.175a.675.675,0,0,1-.175.032c-.064,0-.111.016-.175.016a3.353,3.353,0,0,1-1.763-.3,2.146,2.146,0,0,1-1.239-1.429,3.483,3.483,0,0,1-.143-.794,6.893,6.893,0,0,1,.016-.81,6.692,6.692,0,0,1,.238-1.175,10.751,10.751,0,0,1,.413-1.128c.159-.349.333-.7.508-1.032.19-.334.4-.651.619-.969a17.323,17.323,0,0,1,1.556-1.969,15.684,15.684,0,0,1,1.842-1.7c.286-.222.572-.429.889-.635a7.01,7.01,0,0,1,.969-.508,2.789,2.789,0,0,1,.508-.191,3.133,3.133,0,0,1,.556-.111,1.816,1.816,0,0,1,.715.048.82.82,0,0,1,.461.286,2.924,2.924,0,0,1,.318.492,2.068,2.068,0,0,1,.206.651,2.981,2.981,0,0,0,.063.4c.016.127.032.254.048.4q.024.524,0,1.048t-.1,1.048c-.127.921-.27,1.779-.445,2.589C355.776,9,355.618,9.808,355.443,10.649Zm-.889,1.159a1.374,1.374,0,0,1-.159.111.88.88,0,0,0-.127.1c-.524.4-1.048.81-1.556,1.223s-1.016.842-1.509,1.271a9.179,9.179,0,0,0-.81.762c-.254.27-.508.54-.762.826a7.873,7.873,0,0,0-1.08,1.668,6.872,6.872,0,0,0-.3.762,2.292,2.292,0,0,0-.079,1.08,1.018,1.018,0,0,0,.413.651,1,1,0,0,0,.746.143,2.75,2.75,0,0,0,.588-.175,3.984,3.984,0,0,0,1.334-1,6.4,6.4,0,0,0,.7-.921c.238-.365.461-.746.667-1.128s.381-.778.572-1.191c.27-.651.508-1.286.715-1.938s.4-1.318.572-1.985c.016-.016.016-.048.032-.079A1.289,1.289,0,0,0,354.554,11.809Z" transform="translate(-346.559 -1.132)"/><path class="a" d="M426.924,46.1c.127-.159.254-.206.365-.143a.316.316,0,0,1,.175.318,1.534,1.534,0,0,1,0,.27c-.016.1-.032.175-.048.27l-.032.159a1.749,1.749,0,0,0,.508-.175,4.675,4.675,0,0,0,.413-.27c.111-.1.222-.191.3-.27a.851.851,0,0,1,.191-.175.17.17,0,0,1,.175-.016c.064.032.079.079.032.159a1.476,1.476,0,0,1-.191.254,2.043,2.043,0,0,1-.381.334q-.238.167-.524.334a2.131,2.131,0,0,1-.635.206l-.143.238-.143.238a1.251,1.251,0,0,1-.27.318.6.6,0,0,1-.238.143.347.347,0,0,1-.476-.159.717.717,0,0,1-.111-.4,2.846,2.846,0,0,1,.318-1.413.9.9,0,0,1,.159-.206c.159-.111.286-.079.4.1,0,.016.016.032.032.079Zm-.048,1.207-.032-.032a.446.446,0,0,1-.238-.445v-.143c0-.016,0-.016-.032-.032a2.036,2.036,0,0,0-.175.492c-.032.159-.079.334-.1.492a.27.27,0,0,0-.016.111.254.254,0,0,0,.048.127.931.931,0,0,0,.318-.286.852.852,0,0,0,.222-.286Zm.3-1.1c-.032,0-.048,0-.048.016a1.345,1.345,0,0,0-.238.476.1.1,0,0,0,0,.1v.111q0,.071.1.1.048.024.1-.048a1.666,1.666,0,0,0,.143-.651.244.244,0,0,0-.048-.1Z" transform="translate(-413.292 -38.757)"/><path class="a" d="M441,47.705a.105.105,0,0,0,.111.032c.032-.016.079-.048.111-.064a.333.333,0,0,1,.1-.064,3.318,3.318,0,0,1,.27-.222c.1-.079.175-.143.254-.222l.746-.794c.064-.079.111-.1.175-.079a.133.133,0,0,1,.1.191l-.048.445a4.252,4.252,0,0,1-.079.476c-.032.159-.048.318-.079.476a.989.989,0,0,0-.016.3v.3a1.819,1.819,0,0,0,.032.222c.016.079.064.1.127.064a1.267,1.267,0,0,0,.254-.127,2.724,2.724,0,0,0,.318-.286,4.045,4.045,0,0,0,.413-.476c.127-.175.254-.334.381-.508.191-.254.381-.508.572-.778.175-.27.365-.524.556-.778.064-.079.111-.143.143-.175a.143.143,0,0,1,.206-.048.127.127,0,0,1,.032.175.649.649,0,0,0-.079.143c-.032.048-.048.1-.079.143L444.5,47.419c-.143.191-.286.365-.429.556q-.238.286-.476.524a2.543,2.543,0,0,1-.413.349,1.244,1.244,0,0,1-.286.175.407.407,0,0,1-.333,0,.467.467,0,0,1-.222-.238,1.369,1.369,0,0,1-.111-.54c.016-.191.016-.365.032-.556a3.159,3.159,0,0,1,.079-.54v-.1c-.032-.016-.064,0-.079,0l-.048.048c-.1.1-.175.175-.254.27s-.175.175-.254.27a1.425,1.425,0,0,1-.159.143c-.048.048-.111.1-.159.143a.658.658,0,0,1-.206.111.5.5,0,0,1-.365.032.43.43,0,0,1-.254-.27,1.244,1.244,0,0,1-.079-.556q.024-.167.048-.381c.032-.143.048-.286.1-.445a3.641,3.641,0,0,1,.111-.445c.032-.143.079-.254.111-.365a1.008,1.008,0,0,1,.1-.159.213.213,0,0,1,.222-.079.18.18,0,0,1,.111.191v.079c0,.032-.016.048-.016.079l-.175.842c-.016.1-.048.254-.079.461C441,47.276,440.987,47.5,441,47.705Z" transform="translate(-425.559 -38.283)"/><path class="a" d="M471.431,31.75c-.175.111-.381.238-.588.381a4.777,4.777,0,0,1-.588.334.738.738,0,0,1-.365.1c-.286-.016-.413-.159-.4-.476a7.01,7.01,0,0,1,.222-1.1,9.01,9.01,0,0,1,.381-1.032,1.632,1.632,0,0,0,.063-.159c.032-.048.048-.111.079-.159a.569.569,0,0,1,.111-.159.263.263,0,0,1,.19-.079.2.2,0,0,1,.175.1.645.645,0,0,1,.079.334,1.513,1.513,0,0,1-.048.4,6.737,6.737,0,0,1-.619,1.683l-.048.1a.058.058,0,0,0,.079.032.122.122,0,0,0,.079-.032,2.669,2.669,0,0,0,.572-.334q.31-.214.572-.381c.079-.032.143-.064.191-.079a.146.146,0,0,1,.159.032.128.128,0,0,1,.048.143,1.815,1.815,0,0,1-.032.222c-.063.238-.127.476-.191.7-.064.238-.127.476-.191.7-.079.318-.159.619-.238.937a8.916,8.916,0,0,0-.191.937,3.183,3.183,0,0,1-.064.381,1.539,1.539,0,0,0-.016.381v.111a.138.138,0,0,0,.064.111.058.058,0,0,1,.048-.016c.016,0,.032-.016.048-.032a1.689,1.689,0,0,0,.191-.159.676.676,0,0,0,.175-.191,12.363,12.363,0,0,0,1.112-1.588c.334-.556.651-1.112.969-1.652a.229.229,0,0,1,.1-.111c.048-.048.1-.064.143-.032a.131.131,0,0,1,.079.127.539.539,0,0,1-.1.191c-.191.349-.381.667-.556.969s-.349.6-.524.873a9.565,9.565,0,0,1-.572.826c-.191.27-.413.524-.635.794a1.587,1.587,0,0,1-.175.159.478.478,0,0,1-.175.1.388.388,0,0,1-.191,0,.377.377,0,0,1-.191-.143.586.586,0,0,1-.111-.365v-.238a1.227,1.227,0,0,1,.032-.238c.079-.556.175-1.112.3-1.652a14.263,14.263,0,0,1,.476-1.6c.016-.064.032-.1.032-.111C471.446,31.766,471.446,31.75,471.431,31.75Zm-1.588.175c.191-.413.318-.746.413-1.016a5.866,5.866,0,0,0,.191-.619,1.687,1.687,0,0,0,.048-.318v-.127l-.032.064a4.96,4.96,0,0,0-.191.476c-.064.175-.127.349-.191.54s-.111.365-.159.54A3.057,3.057,0,0,1,469.842,31.925Z" transform="translate(-449.968 -24.854)"/><path class="a" d="M493.839,38a1.689,1.689,0,0,0-.238.238,1.433,1.433,0,0,0-.175.254c-.1.143-.175.286-.27.445a4.011,4.011,0,0,0-.254.445l-.874,1.588-.1.127a.239.239,0,0,1-.175.064c-.032-.016-.079-.032-.111-.048a.1.1,0,0,1-.048-.1v-.127a.394.394,0,0,1,.016-.127c.032-.143.063-.27.1-.4s.063-.254.1-.4l.746-2.557c.032-.1.064-.206.111-.334.048-.111.127-.159.222-.127a1.093,1.093,0,0,1,.127.048.165.165,0,0,1,.064.127,1.432,1.432,0,0,1-.032.175c-.032.111-.064.238-.1.349s-.064.238-.1.349l-.4,1.366c-.016.064-.032.111-.016.143l.127-.222a3.323,3.323,0,0,0,.238-.476c.079-.143.159-.3.254-.476a2.522,2.522,0,0,1,.445-.572l.1-.1c.032-.032.064-.048.1-.079a.277.277,0,0,1,.445.127q.048.143.1.334a3.619,3.619,0,0,1,.032.4,3.484,3.484,0,0,0,.016.4,2.338,2.338,0,0,1,.016.334,2.371,2.371,0,0,0,.032.334.965.965,0,0,0,.079.286.1.1,0,0,0,.127.079,1.091,1.091,0,0,0,.127-.048.4.4,0,0,0,.111-.064,5.086,5.086,0,0,0,.429-.349c.143-.143.286-.27.429-.413.159-.143.3-.286.429-.413a.877.877,0,0,1,.127-.1.12.12,0,0,1,.159.016c.032.032.032.079.016.143a.3.3,0,0,1-.064.143l-.286.286-.222.222-.191.191-.191.191a2.752,2.752,0,0,1-.238.206l-.238.191a.329.329,0,0,1-.159.1.9.9,0,0,0-.191.064.4.4,0,0,1-.524-.191,1.119,1.119,0,0,1-.143-.476,2.172,2.172,0,0,1-.032-.3c0-.1-.016-.206-.016-.3a3.444,3.444,0,0,1-.016-.4,3.457,3.457,0,0,0-.016-.4v-.1c0-.032-.016-.064-.016-.111Z" transform="translate(-468.565 -31.196)"/><path class="a" d="M515.513,47.955a2.227,2.227,0,0,1,.19-.175c.079-.064.159-.143.238-.206a2.793,2.793,0,0,0,.222-.191c.079-.064.127-.111.19-.159a.578.578,0,0,1,.143-.111.185.185,0,0,1,.159-.032.192.192,0,0,1,.111.111c.016.048.032.079.016.1a.339.339,0,0,0,.016.1,1.756,1.756,0,0,1,.079.27c.032.1.064.175.1.27a.64.64,0,0,0,.079.143.867.867,0,0,0,.111.143.27.27,0,0,0,.159.1.22.22,0,0,0,.175-.032.9.9,0,0,0,.206-.159,3.159,3.159,0,0,0,.3-.349l.286-.381c.111-.159.191-.286.27-.413s.159-.254.254-.413a1.016,1.016,0,0,1,.1-.159.151.151,0,0,1,.206-.032.136.136,0,0,1,.032.175l-.048.1c-.159.27-.318.508-.476.731a8.528,8.528,0,0,1-.508.7c-.064.064-.111.127-.175.191l-.191.191a.667.667,0,0,1-.4.191.58.58,0,0,1-.477-.191,1.089,1.089,0,0,1-.3-.524.9.9,0,0,0-.064-.191,1.484,1.484,0,0,0-.063-.206,1.125,1.125,0,0,1-.143.1l-.572.524a.907.907,0,0,0-.127.111.91.91,0,0,1-.127.111c-.111.079-.19.1-.27.032a.258.258,0,0,1-.111-.222.272.272,0,0,1,.016-.127c.016-.048.032-.1.048-.159.016-.048.032-.111.048-.159a5.365,5.365,0,0,1,.572-1.175l.143-.191a.634.634,0,0,1,.191-.159.574.574,0,0,1,.524-.079.9.9,0,0,1,.206.127.176.176,0,0,1,.064.222.159.159,0,0,1-.159.1,1.633,1.633,0,0,1-.27-.016.221.221,0,0,0-.222.079l-.1.1c-.032.032-.048.064-.079.1a2.358,2.358,0,0,0-.222.4c-.063.159-.143.286-.206.413a1.28,1.28,0,0,0-.079.159A.781.781,0,0,0,515.513,47.955Z" transform="translate(-488.333 -38.898)"/><path class="a" d="M531.2,14.865c.016-.254.032-.492.063-.715s.063-.445.111-.667l.238-1.1.238-1.1c.191-.953.413-1.874.635-2.8s.476-1.842.731-2.763c.111-.445.254-.889.4-1.334.143-.429.286-.873.445-1.318a16.166,16.166,0,0,1,.794-1.985.942.942,0,0,1,.064-.127c.032-.032.048-.079.079-.111a.205.205,0,0,1,.191-.079.21.21,0,0,1,.143.159.806.806,0,0,1,.048.27,1.937,1.937,0,0,1-.016.429,3.227,3.227,0,0,1-.063.413,7.232,7.232,0,0,1-.27,1.191q-.167.572-.381,1.143l-.429,1.048c-.159.349-.318.683-.476,1.032L533.169,7.7a1.826,1.826,0,0,0-.175.461c-.079.349-.159.683-.254,1.032s-.175.7-.254,1.032c-.079.318-.143.619-.206.921s-.127.6-.206.921-.159.619-.222.921-.127.6-.175.921c-.016.159-.032.318-.048.461-.016.159-.032.3-.048.461a.885.885,0,0,0,.079.508v.048a.161.161,0,0,1-.079.191.145.145,0,0,1-.19,0,.359.359,0,0,1-.175-.27.492.492,0,0,1-.016-.159v-.286Zm3.843-13.579c-.032.064-.063.1-.079.127q-.381.977-.667,1.953c-.143.476-.27.937-.413,1.413s-.27.937-.4,1.429l-.048.222a.558.558,0,0,0,.127-.206,5.609,5.609,0,0,1,.254-.54,5.61,5.61,0,0,0,.254-.54c.159-.4.318-.794.461-1.207q.214-.6.381-1.239a5.238,5.238,0,0,0,.143-.683,3.7,3.7,0,0,0,.032-.731Z" transform="translate(-501.876 -0.775)"/></g><g transform="translate(55.038 0.123)"><path class="a" d="M355.443,10.649c.476-.349.953-.683,1.445-1.032s1-.667,1.493-.953a.4.4,0,0,0,.111-.064.912.912,0,0,0,.111-.064.809.809,0,0,1,.175-.064q.1-.024.143.1a.171.171,0,0,1,0,.175.432.432,0,0,1-.127.159,1.212,1.212,0,0,1-.175.127c-.064.032-.127.079-.191.111-.524.318-1.048.651-1.556,1s-1.016.7-1.509,1.08a.5.5,0,0,0-.159.286c-.127.524-.254,1.032-.4,1.541s-.3,1.016-.461,1.509c-.175.54-.381,1.064-.588,1.588a13.515,13.515,0,0,1-.746,1.525c-.175.318-.365.619-.556.921a6.78,6.78,0,0,1-.651.858,4.291,4.291,0,0,1-.937.858,2.961,2.961,0,0,1-.619.349,3.432,3.432,0,0,1-.683.222,1.334,1.334,0,0,1-.858-.1,1.32,1.32,0,0,1-.588-.461,1.964,1.964,0,0,1-.286-.7,2.408,2.408,0,0,1,.079-1.112,6.706,6.706,0,0,1,.4-.985,7.94,7.94,0,0,1,.54-.937,9.187,9.187,0,0,1,.842-1.064c.3-.334.635-.651.969-.969.524-.492,1.064-.953,1.6-1.4s1.1-.889,1.683-1.318l.619-.476a.942.942,0,0,0,.175-.159.994.994,0,0,0,.079-.222c.27-1.1.508-2.144.715-3.16s.349-2.033.461-3.049c.032-.254.048-.508.064-.746a5.879,5.879,0,0,0,0-.746,6.414,6.414,0,0,0-.1-.746,2.75,2.75,0,0,0-.127-.429.811.811,0,0,0-.619-.476,1.291,1.291,0,0,0-.349-.016l-.349.048a1.374,1.374,0,0,0-.365.1c-.111.048-.238.1-.349.143a6.878,6.878,0,0,0-1.445.842,15.7,15.7,0,0,0-2.4,2.176,14.429,14.429,0,0,0-1.89,2.636c-.191.349-.365.715-.524,1.08a8.813,8.813,0,0,0-.4,1.143,5.046,5.046,0,0,0-.206,1.239,3.532,3.532,0,0,0,.127,1.08,1.8,1.8,0,0,0,1.048,1.239,3.131,3.131,0,0,0,1.382.318h.524c.1,0,.143.032.159.1.016.1-.032.143-.127.175a.675.675,0,0,1-.175.032c-.064,0-.111.016-.175.016a3.353,3.353,0,0,1-1.763-.3,2.146,2.146,0,0,1-1.239-1.429,3.483,3.483,0,0,1-.143-.794,6.893,6.893,0,0,1,.016-.81,6.692,6.692,0,0,1,.238-1.175,10.751,10.751,0,0,1,.413-1.128c.159-.349.333-.7.508-1.032.19-.334.4-.651.619-.969a17.323,17.323,0,0,1,1.556-1.969,15.684,15.684,0,0,1,1.842-1.7c.286-.222.572-.429.889-.635a7.01,7.01,0,0,1,.969-.508,2.789,2.789,0,0,1,.508-.191,3.133,3.133,0,0,1,.556-.111,1.816,1.816,0,0,1,.715.048.82.82,0,0,1,.461.286,2.924,2.924,0,0,1,.318.492,2.068,2.068,0,0,1,.206.651,2.981,2.981,0,0,0,.063.4c.016.127.032.254.048.4q.024.524,0,1.048t-.1,1.048c-.127.921-.27,1.779-.445,2.589C355.776,9,355.618,9.808,355.443,10.649Zm-.889,1.159a1.374,1.374,0,0,1-.159.111.88.88,0,0,0-.127.1c-.524.4-1.048.81-1.556,1.223s-1.016.842-1.509,1.271a9.179,9.179,0,0,0-.81.762c-.254.27-.508.54-.762.826a7.873,7.873,0,0,0-1.08,1.668,6.872,6.872,0,0,0-.3.762,2.292,2.292,0,0,0-.079,1.08,1.018,1.018,0,0,0,.413.651,1,1,0,0,0,.746.143,2.75,2.75,0,0,0,.588-.175,3.984,3.984,0,0,0,1.334-1,6.4,6.4,0,0,0,.7-.921c.238-.365.461-.746.667-1.128s.381-.778.572-1.191c.27-.651.508-1.286.715-1.938s.4-1.318.572-1.985c.016-.016.016-.048.032-.079A1.289,1.289,0,0,0,354.554,11.809Z" transform="translate(-346.559 -1.132)"/><path class="a" d="M426.924,46.1c.127-.159.254-.206.365-.143a.316.316,0,0,1,.175.318,1.534,1.534,0,0,1,0,.27c-.016.1-.032.175-.048.27l-.032.159a1.749,1.749,0,0,0,.508-.175,4.675,4.675,0,0,0,.413-.27c.111-.1.222-.191.3-.27a.851.851,0,0,1,.191-.175.17.17,0,0,1,.175-.016c.064.032.079.079.032.159a1.476,1.476,0,0,1-.191.254,2.043,2.043,0,0,1-.381.334q-.238.167-.524.334a2.131,2.131,0,0,1-.635.206l-.143.238-.143.238a1.251,1.251,0,0,1-.27.318.6.6,0,0,1-.238.143.347.347,0,0,1-.476-.159.717.717,0,0,1-.111-.4,2.846,2.846,0,0,1,.318-1.413.9.9,0,0,1,.159-.206c.159-.111.286-.079.4.1,0,.016.016.032.032.079Zm-.048,1.207-.032-.032a.446.446,0,0,1-.238-.445v-.143c0-.016,0-.016-.032-.032a2.036,2.036,0,0,0-.175.492c-.032.159-.079.334-.1.492a.27.27,0,0,0-.016.111.254.254,0,0,0,.048.127.931.931,0,0,0,.318-.286.852.852,0,0,0,.222-.286Zm.3-1.1c-.032,0-.048,0-.048.016a1.345,1.345,0,0,0-.238.476.1.1,0,0,0,0,.1v.111q0,.071.1.1.048.024.1-.048a1.666,1.666,0,0,0,.143-.651.244.244,0,0,0-.048-.1Z" transform="translate(-413.292 -38.757)"/><path class="a" d="M441,47.705a.105.105,0,0,0,.111.032c.032-.016.079-.048.111-.064a.333.333,0,0,1,.1-.064,3.318,3.318,0,0,1,.27-.222c.1-.079.175-.143.254-.222l.746-.794c.064-.079.111-.1.175-.079a.133.133,0,0,1,.1.191l-.048.445a4.252,4.252,0,0,1-.079.476c-.032.159-.048.318-.079.476a.989.989,0,0,0-.016.3v.3a1.819,1.819,0,0,0,.032.222c.016.079.064.1.127.064a1.267,1.267,0,0,0,.254-.127,2.724,2.724,0,0,0,.318-.286,4.045,4.045,0,0,0,.413-.476c.127-.175.254-.334.381-.508.191-.254.381-.508.572-.778.175-.27.365-.524.556-.778.064-.079.111-.143.143-.175a.143.143,0,0,1,.206-.048.127.127,0,0,1,.032.175.649.649,0,0,0-.079.143c-.032.048-.048.1-.079.143L444.5,47.419c-.143.191-.286.365-.429.556q-.238.286-.476.524a2.543,2.543,0,0,1-.413.349,1.244,1.244,0,0,1-.286.175.407.407,0,0,1-.333,0,.467.467,0,0,1-.222-.238,1.369,1.369,0,0,1-.111-.54c.016-.191.016-.365.032-.556a3.159,3.159,0,0,1,.079-.54v-.1c-.032-.016-.064,0-.079,0l-.048.048c-.1.1-.175.175-.254.27s-.175.175-.254.27a1.425,1.425,0,0,1-.159.143c-.048.048-.111.1-.159.143a.658.658,0,0,1-.206.111.5.5,0,0,1-.365.032.43.43,0,0,1-.254-.27,1.244,1.244,0,0,1-.079-.556q.024-.167.048-.381c.032-.143.048-.286.1-.445a3.641,3.641,0,0,1,.111-.445c.032-.143.079-.254.111-.365a1.008,1.008,0,0,1,.1-.159.213.213,0,0,1,.222-.079.18.18,0,0,1,.111.191v.079c0,.032-.016.048-.016.079l-.175.842c-.016.1-.048.254-.079.461C441,47.276,440.987,47.5,441,47.705Z" transform="translate(-425.559 -38.283)"/><path class="a" d="M471.431,31.75c-.175.111-.381.238-.588.381a4.777,4.777,0,0,1-.588.334.738.738,0,0,1-.365.1c-.286-.016-.413-.159-.4-.476a7.01,7.01,0,0,1,.222-1.1,9.01,9.01,0,0,1,.381-1.032,1.632,1.632,0,0,0,.063-.159c.032-.048.048-.111.079-.159a.569.569,0,0,1,.111-.159.263.263,0,0,1,.19-.079.2.2,0,0,1,.175.1.645.645,0,0,1,.079.334,1.513,1.513,0,0,1-.048.4,6.737,6.737,0,0,1-.619,1.683l-.048.1a.058.058,0,0,0,.079.032.122.122,0,0,0,.079-.032,2.669,2.669,0,0,0,.572-.334q.31-.214.572-.381c.079-.032.143-.064.191-.079a.146.146,0,0,1,.159.032.128.128,0,0,1,.048.143,1.815,1.815,0,0,1-.032.222c-.063.238-.127.476-.191.7-.064.238-.127.476-.191.7-.079.318-.159.619-.238.937a8.916,8.916,0,0,0-.191.937,3.183,3.183,0,0,1-.064.381,1.539,1.539,0,0,0-.016.381v.111a.138.138,0,0,0,.064.111.058.058,0,0,1,.048-.016c.016,0,.032-.016.048-.032a1.689,1.689,0,0,0,.191-.159.676.676,0,0,0,.175-.191,12.363,12.363,0,0,0,1.112-1.588c.334-.556.651-1.112.969-1.652a.229.229,0,0,1,.1-.111c.048-.048.1-.064.143-.032a.131.131,0,0,1,.079.127.539.539,0,0,1-.1.191c-.191.349-.381.667-.556.969s-.349.6-.524.873a9.565,9.565,0,0,1-.572.826c-.191.27-.413.524-.635.794a1.587,1.587,0,0,1-.175.159.478.478,0,0,1-.175.1.388.388,0,0,1-.191,0,.377.377,0,0,1-.191-.143.586.586,0,0,1-.111-.365v-.238a1.227,1.227,0,0,1,.032-.238c.079-.556.175-1.112.3-1.652a14.263,14.263,0,0,1,.476-1.6c.016-.064.032-.1.032-.111C471.446,31.766,471.446,31.75,471.431,31.75Zm-1.588.175c.191-.413.318-.746.413-1.016a5.866,5.866,0,0,0,.191-.619,1.687,1.687,0,0,0,.048-.318v-.127l-.032.064a4.96,4.96,0,0,0-.191.476c-.064.175-.127.349-.191.54s-.111.365-.159.54A3.057,3.057,0,0,1,469.842,31.925Z" transform="translate(-449.968 -24.854)"/><path class="a" d="M493.839,38a1.689,1.689,0,0,0-.238.238,1.433,1.433,0,0,0-.175.254c-.1.143-.175.286-.27.445a4.011,4.011,0,0,0-.254.445l-.874,1.588-.1.127a.239.239,0,0,1-.175.064c-.032-.016-.079-.032-.111-.048a.1.1,0,0,1-.048-.1v-.127a.394.394,0,0,1,.016-.127c.032-.143.063-.27.1-.4s.063-.254.1-.4l.746-2.557c.032-.1.064-.206.111-.334.048-.111.127-.159.222-.127a1.093,1.093,0,0,1,.127.048.165.165,0,0,1,.064.127,1.432,1.432,0,0,1-.032.175c-.032.111-.064.238-.1.349s-.064.238-.1.349l-.4,1.366c-.016.064-.032.111-.016.143l.127-.222a3.323,3.323,0,0,0,.238-.476c.079-.143.159-.3.254-.476a2.522,2.522,0,0,1,.445-.572l.1-.1c.032-.032.064-.048.1-.079a.277.277,0,0,1,.445.127q.048.143.1.334a3.619,3.619,0,0,1,.032.4,3.484,3.484,0,0,0,.016.4,2.338,2.338,0,0,1,.016.334,2.371,2.371,0,0,0,.032.334.965.965,0,0,0,.079.286.1.1,0,0,0,.127.079,1.091,1.091,0,0,0,.127-.048.4.4,0,0,0,.111-.064,5.086,5.086,0,0,0,.429-.349c.143-.143.286-.27.429-.413.159-.143.3-.286.429-.413a.877.877,0,0,1,.127-.1.12.12,0,0,1,.159.016c.032.032.032.079.016.143a.3.3,0,0,1-.064.143l-.286.286-.222.222-.191.191-.191.191a2.752,2.752,0,0,1-.238.206l-.238.191a.329.329,0,0,1-.159.1.9.9,0,0,0-.191.064.4.4,0,0,1-.524-.191,1.119,1.119,0,0,1-.143-.476,2.172,2.172,0,0,1-.032-.3c0-.1-.016-.206-.016-.3a3.444,3.444,0,0,1-.016-.4,3.457,3.457,0,0,0-.016-.4v-.1c0-.032-.016-.064-.016-.111Z" transform="translate(-468.565 -31.196)"/><path class="a" d="M515.513,47.955a2.227,2.227,0,0,1,.19-.175c.079-.064.159-.143.238-.206a2.793,2.793,0,0,0,.222-.191c.079-.064.127-.111.19-.159a.578.578,0,0,1,.143-.111.185.185,0,0,1,.159-.032.192.192,0,0,1,.111.111c.016.048.032.079.016.1a.339.339,0,0,0,.016.1,1.756,1.756,0,0,1,.079.27c.032.1.064.175.1.27a.64.64,0,0,0,.079.143.867.867,0,0,0,.111.143.27.27,0,0,0,.159.1.22.22,0,0,0,.175-.032.9.9,0,0,0,.206-.159,3.159,3.159,0,0,0,.3-.349l.286-.381c.111-.159.191-.286.27-.413s.159-.254.254-.413a1.016,1.016,0,0,1,.1-.159.151.151,0,0,1,.206-.032.136.136,0,0,1,.032.175l-.048.1c-.159.27-.318.508-.476.731a8.528,8.528,0,0,1-.508.7c-.064.064-.111.127-.175.191l-.191.191a.667.667,0,0,1-.4.191.58.58,0,0,1-.477-.191,1.089,1.089,0,0,1-.3-.524.9.9,0,0,0-.064-.191,1.484,1.484,0,0,0-.063-.206,1.125,1.125,0,0,1-.143.1l-.572.524a.907.907,0,0,0-.127.111.91.91,0,0,1-.127.111c-.111.079-.19.1-.27.032a.258.258,0,0,1-.111-.222.272.272,0,0,1,.016-.127c.016-.048.032-.1.048-.159.016-.048.032-.111.048-.159a5.365,5.365,0,0,1,.572-1.175l.143-.191a.634.634,0,0,1,.191-.159.574.574,0,0,1,.524-.079.9.9,0,0,1,.206.127.176.176,0,0,1,.064.222.159.159,0,0,1-.159.1,1.633,1.633,0,0,1-.27-.016.221.221,0,0,0-.222.079l-.1.1c-.032.032-.048.064-.079.1a2.358,2.358,0,0,0-.222.4c-.063.159-.143.286-.206.413a1.28,1.28,0,0,0-.079.159A.781.781,0,0,0,515.513,47.955Z" transform="translate(-488.333 -38.898)"/><path class="a" d="M531.2,14.865c.016-.254.032-.492.063-.715s.063-.445.111-.667l.238-1.1.238-1.1c.191-.953.413-1.874.635-2.8s.476-1.842.731-2.763c.111-.445.254-.889.4-1.334.143-.429.286-.873.445-1.318a16.166,16.166,0,0,1,.794-1.985.942.942,0,0,1,.064-.127c.032-.032.048-.079.079-.111a.205.205,0,0,1,.191-.079.21.21,0,0,1,.143.159.806.806,0,0,1,.048.27,1.937,1.937,0,0,1-.016.429,3.227,3.227,0,0,1-.063.413,7.232,7.232,0,0,1-.27,1.191q-.167.572-.381,1.143l-.429,1.048c-.159.349-.318.683-.476,1.032L533.169,7.7a1.826,1.826,0,0,0-.175.461c-.079.349-.159.683-.254,1.032s-.175.7-.254,1.032c-.079.318-.143.619-.206.921s-.127.6-.206.921-.159.619-.222.921-.127.6-.175.921c-.016.159-.032.318-.048.461-.016.159-.032.3-.048.461a.885.885,0,0,0,.079.508v.048a.161.161,0,0,1-.079.191.145.145,0,0,1-.19,0,.359.359,0,0,1-.175-.27.492.492,0,0,1-.016-.159v-.286Zm3.843-13.579c-.032.064-.063.1-.079.127q-.381.977-.667,1.953c-.143.476-.27.937-.413,1.413s-.27.937-.4,1.429l-.048.222a.558.558,0,0,0,.127-.206,5.609,5.609,0,0,1,.254-.54,5.61,5.61,0,0,0,.254-.54c.159-.4.318-.794.461-1.207q.214-.6.381-1.239a5.238,5.238,0,0,0,.143-.683,3.7,3.7,0,0,0,.032-.731Z" transform="translate(-501.876 -0.775)"/></g></g></g></svg>