<svg xmlns="http://www.w3.org/2000/svg" viewBox="0 0 158.83 27.475"><defs><style>.a{fill:#fff;}</style></defs><g transform="translate(0 0)"><g transform="translate(0 0.007)"><path class="a" d="M2.8,99.653v10.838H0V93.3l11.585,11.025V93.487h2.8v17.191Z" transform="translate(0 -93.3)"/></g><g transform="translate(24.852 0.381)"><path class="a" d="M13.3,93.5h2.8v17H13.3Z" transform="translate(-13.3 -93.5)"/></g><g transform="translate(35.69 0.194)"><path class="a" d="M19.1,102a8.573,8.573,0,0,1,8.6-8.6,7.624,7.624,0,0,1,5.979,2.429L31.806,97.7A6,6,0,0,0,27.7,95.829a5.982,5.982,0,0,0,0,11.959,5.354,5.354,0,0,0,4.111-1.869l1.869,1.869a7.624,7.624,0,0,1-5.979,2.429A7.944,7.944,0,0,1,19.1,102Z" transform="translate(-19.1 -93.4)"/></g><g transform="translate(58.667)"><path class="a" d="M31.4,102.459a8.7,8.7,0,1,1,9.156,8.222A8.4,8.4,0,0,1,31.4,102.459Zm14.388-.747a5.9,5.9,0,0,0-6.166-5.793,5.773,5.773,0,0,0-5.419,6.353,5.806,5.806,0,1,0,11.585-.561Z" transform="translate(-31.396 -93.296)"/></g><g transform="translate(58.3 20.935)"><path class="a" d="M42.6,108.424,36.619,104.5,31.2,108.05v1.682l5.419-3.55,5.979,3.737,5.232-3.363v-1.682Z" transform="translate(-31.2 -104.5)"/></g><g transform="translate(58.3 22.056)"><path class="a" d="M42.6,109.024,36.619,105.1,31.2,108.65v1.682l5.419-3.55,5.979,3.737,5.232-3.363v-1.682Z" transform="translate(-31.2 -105.1)"/></g><g transform="translate(82.778 0.941)"><g transform="translate(0 0)"><path class="a" d="M56.259,108.562v-2.429l-1.495-3.177-.747-.747,1.308-.561,1.308-1.121.561-1.308V97.163l-.561-1.308-1.121-1.308L53.83,93.8H45.047l-.747.374v1.121l.561.374h1.495v13.08H45.047l-.747.374v1.121l.561.374h5.045l.747-.374v-1.121l-.561-.374H48.224v-6.166h3.55l1.308,1.308,1.308,2.429v3.363a.661.661,0,0,0,.747.747h2.8l.747-.374v-1.121l-.561-.374ZM54.2,100.34l-.561.374H48.411V95.482h5.232l.561.374.747.747.374.561v1.682l-.374.747Z" transform="translate(-44.3 -93.8)"/></g><g transform="translate(18.312 4.485)"><path class="a" d="M64.751,105.543l-.374.561v.374l-.187.187L64,106.477l-.374-.561v-7.1l-.374-.934-.747-.934L60.827,96.2H57.65l-1.682.747-.934.747-.374.934v.561l.561,1.121.934.374h.561l1.121-.561.374-.934v-.561l-.374-.747.374-.187h2.055l.934.561.187.187.374.561v.934l-.374.934h-3.55l-2.055.934-1.308,1.121-.374.934v1.682l.374.934.747.934,2.055.934h2.99l1.121-.561.374-.374.187.374.934.374h1.682l1.121-.561.374-.934V106.1l-.374-.747h-.934Zm-2.99-2.429v1.308l-.747,1.308-.561.561-.561.374H57.837l-.561-.374-.561-.561-.374-.561v-.561l.374-.561.561-.561,1.308-.747h2.429Z" transform="translate(-54.1 -96.2)"/></g><g transform="translate(34.756)"><path class="a" d="M73.551,108.562V94.547A.661.661,0,0,0,72.8,93.8H70.187l-.747.374v1.121l.561.374h1.682v4.3l-.747-.747-1.308-.561h-2.8l-1.308.561-1.682,1.495-.934,2.055v3.55l.934,2.055,1.495,1.682,1.308.561h2.99l1.121-.561.934-.934v.561l.374.747h2.99l.747-.374v-1.121l-.561-.374Zm-6.166.187-.561-.374-1.495-1.308-.561-.934v-3.177l.561-.934,1.495-1.308.561-.374h1.682l.561.374,1.495,1.308.747,1.308v2.429l-.747,1.308-1.495,1.308-.561.374Z" transform="translate(-62.9 -93.8)"/></g><g transform="translate(51.947 4.858)"><path class="a" d="M76.958,106.3V97.147a.661.661,0,0,0-.747-.747H72.847l-.747.374v1.121l.561.374H75.09v8.222H72.847l-.747.374v1.121l.561.374h6.727l.747-.374v-1.121l-.561-.374Z" transform="translate(-72.1 -96.4)"/></g><g transform="translate(54.189 0)"><path class="a" d="M74.608,97.163h.747l.934-.374.374-.934v-.561l-.374-.934-.934-.561h-.561l-1.121.561-.374.747v.561l.374,1.121Z" transform="translate(-73.3 -93.8)"/></g><g transform="translate(64.093 4.671)"><path class="a" d="M89.625,98.916,88.13,97.234,86.074,96.3h-2.8l-2.055.934-1.682,1.495-.934,2.055v2.8l.934,2.055,1.495,1.682,2.055.934h2.99l1.869-.934,1.682-1.495.934-2.055v-2.8Zm-5.793,7.661-1.308-.747-1.495-1.308-.561-.934v-2.429l.561-.934,1.495-1.308,1.308-.747h1.682l1.308.747,1.495,1.308.561.934v2.429l-.561.934-1.495,1.308-1.308.747Z" transform="translate(-78.6 -96.3)"/></g></g></g></svg>