<svg xmlns="http://www.w3.org/2000/svg" viewBox="0 0 158.83 27.475"><defs><style>.a{fill:#fff}</style></defs><path class="a" d="M2.8 6.36v10.838H0V.007l11.585 11.025V.194h2.8v17.191zM24.852.381h2.8v17h-2.8zM35.69 8.794a8.573 8.573 0 0 1 8.6-8.6 7.624 7.624 0 0 1 5.979 2.429l-1.873 1.871a6 6 0 0 0-4.106-1.871 5.982 5.982 0 0 0 0 11.959 5.354 5.354 0 0 0 4.111-1.869l1.869 1.869a7.624 7.624 0 0 1-5.979 2.429 7.944 7.944 0 0 1-8.601-8.217zm22.981.369a8.7 8.7 0 1 1 9.156 8.222 8.4 8.4 0 0 1-9.156-8.222zm14.388-.747a5.9 5.9 0 0 0-6.166-5.793 5.773 5.773 0 0 0-5.419 6.353 5.806 5.806 0 1 0 11.585-.561zM69.7 24.859l-5.981-3.924-5.419 3.55v1.682l5.419-3.55 5.979 3.737 5.232-3.363v-1.682z"/><path class="a" d="M69.7 25.98l-5.981-3.924-5.419 3.55v1.682l5.419-3.55 5.979 3.737 5.232-3.363V22.43zm25.037-10.277v-2.429l-1.495-3.177-.747-.747 1.308-.561 1.308-1.121.561-1.308V4.304l-.561-1.308-1.121-1.308-1.682-.747h-8.783l-.747.374v1.121l.561.374h1.495v13.08h-1.309l-.747.374v1.121l.561.374h5.045l.747-.374v-1.121l-.561-.374h-1.868V9.724h3.55l1.308 1.308 1.308 2.429v3.363a.661.661 0 0 0 .747.747h2.8l.747-.374v-1.121l-.561-.374zm-2.059-8.222l-.561.374h-5.228V2.623h5.232l.561.374.747.747.374.561v1.682l-.374.747zm19.063 7.288l-.374.561v.374l-.187.187-.19-.188-.374-.561v-7.1l-.374-.934-.747-.934-1.678-.748h-3.177l-1.682.747-.934.747-.374.934v.561l.561 1.121.934.374h.561l1.121-.561.374-.934v-.561l-.374-.747.374-.187h2.055l.934.561.187.187.374.561v.934l-.374.934h-3.55l-2.055.934-1.308 1.121-.374.934v1.682l.374.934.747.934 2.055.934h2.99l1.121-.561.374-.374.187.374.934.374h1.682l1.121-.561.374-.934v-.562l-.374-.747h-.934zm-2.99-2.429v1.308l-.747 1.308-.561.561-.561.374h-2.055l-.561-.374-.561-.561-.374-.561v-.561l.374-.561.561-.561 1.308-.747h2.429zm19.434 3.363V1.688a.661.661 0 0 0-.751-.747h-2.613l-.747.374v1.121l.561.374h1.682v4.3l-.747-.747-1.308-.561h-2.8l-1.308.561-1.682 1.495-.934 2.055v3.55l.934 2.055 1.495 1.682 1.308.561h2.99l1.121-.561.934-.934v.561l.374.747h2.99l.747-.374v-1.121l-.561-.374zm-6.166.187l-.561-.374-1.495-1.308-.561-.934v-3.177l.561-.934 1.495-1.308.561-.374h1.682l.561.374 1.495 1.308.747 1.308V12.9l-.747 1.308-1.495 1.308-.561.374zm17.564-.191V6.546a.661.661 0 0 0-.747-.747h-3.364l-.747.374v1.121l.561.374h2.429v8.222h-2.243l-.747.374v1.121l.561.374h6.727l.747-.374v-1.121l-.561-.374zm-1.308-11.395h.747l.934-.374.374-.934v-.561l-.374-.934-.934-.561h-.561l-1.121.561-.374.747v.561l.374 1.121zm19.621 3.924l-1.495-1.682-2.056-.934h-2.8l-2.055.934-1.682 1.495-.934 2.055v2.8l.934 2.055 1.495 1.682 2.055.934h2.99l1.869-.934 1.682-1.495.934-2.055v-2.8zm-5.793 7.661l-1.308-.747-1.495-1.308-.561-.934v-2.429l.561-.934 1.495-1.308 1.308-.747h1.682l1.308.747 1.495 1.308.561.934V12.9l-.561.934-1.495 1.308-1.308.747z"/></svg>