<svg xmlns="http://www.w3.org/2000/svg" viewBox="0 0 99.8 15"><path fill="#3E3E45" d="M0 12.8h1.5V6.9l6.3 6V3.6H6.3v5.9L0 3.5zM16.8.5h1.5v9.2h-1.5zm9.1 7.7c0-2.6 2.1-4.7 4.7-4.7 1.3 0 2.4.5 3.2 1.3l-1 1.1c-.6-.6-1.4-1-2.3-1-1.8 0-3.2 1.4-3.2 3.3 0 1.8 1.4 3.3 3.2 3.3.9 0 1.7-.4 2.3-1l1 1.1c-.8.9-2 1.3-3.2 1.3-2.6 0-4.7-2-4.7-4.7m26.2-3.7c-.1-1.8-1.5-3.2-3.3-3.1-1.8.1-3.1 1.6-3 3.4.1 1.8 1.5 3.2 3.3 3.1 1.8-.1 3.1-1.6 3-3.4m-7.8.4C44.2 2.3 46.1.1 48.7 0c2.6-.1 4.8 1.8 4.9 4.4.1 2.6-1.8 4.8-4.4 4.9-2.6.2-4.8-1.7-4.9-4.4m22.1 6.2c1 0 1.5-.6 1.5-1.3 0-.7-.5-1.3-1.5-1.3h-2v2.6h2zM66 7.2c.9 0 1.4-.5 1.4-1.2s-.5-1.2-1.4-1.2h-1.5v2.5H66zm-3.1-3.9h3.2c1.7 0 2.7 1.1 2.7 2.5 0 .8-.3 1.4-.9 1.8.9.4 1.5 1.1 1.5 2.2 0 1.6-1.3 2.6-3 2.6h-3.5V3.3zm17.8.1L82 6.1h-2.5l1.2-2.7zm-4.3 6.2H78l1-2h3.8l1 2h1.6L80.9.3l-4.5 9.3zm19.3-3c1 0 1.5-.5 1.5-1.3S96.7 4 95.7 4h-1.3v2.6h1.3zm-.4 1.3h-.9v3.9h-1.5V2.6h3c1.7 0 2.9 1.1 2.9 2.6 0 1.2-.7 2.1-1.9 2.5l2.9 4H98l-2.7-3.8zm-55.4 5.5v1.4l4.4-3 5 3.2 4.4-2.9v-1.4l-4.4 2.9-5-3.1z"/></svg>